# xmcd
#
# Track frame offsets:
#	150
#	38630
#	54610
#	67627
#	89170
#	99990
#	115982
#	130642
#	170642
#	198920
#	215347
#	224567
#
# Disc length: 4035
#
# Revision: 1
# Processed by: cddbd v1.5.1PL0 Copyright (c) Steve Scherf et al.
# Submitted via: ExactAudioCopy v0.95a5
# Normalized: r0:TDELIM( - )
#
DISCID=aa0fc10c
DTITLE=Various Artist - The Art of Piano Great Pianists of the 20th century
DYEAR=1999
DGENRE=Classical
TTITLE0=Ignace jan Paderewski - List, Hunarian Rhapsody, S.244 no.2
TTITLE1=Josef hofmann - Rachmaninov, Prelude in C sharp minor
TTITLE2=Sergei Rachmaninov - Rachmaninov, Moments musicoux, Op.16 No.2 in E flat minor
TTITLE3=Benno Moiseiwtsch - Rachmaninov, Prelude in B minor
TTITLE4=Vladimir Horowitz - Chopin, Etude in F, Op.10 No.8
TTITLE5=Vladimir Horowitz - Horowitz, Variations on Bizet's "Carmen"
TTITLE6=Gyorgy Cziffra - Liszt, Grand Galop chromatique
TTITLE7=Myra Hess - Beethoven, Sonata No.23 "Appassionata" I Allegro assai
TTITLE8=Artur Rubinstein - Chopin, Polonaise in A flat, Op.53
TTITLE9=Artur Rubinstein - Chopin, Polonaise in A, Op.40 No.1
TTITLE10=Francis Plante - Chopin, Etude in G, Op.10 No.7
TTITLE11=Alfred Cortot - Schmann, Kinderszenen, Op.15
EXTD=
EXTT0=
EXTT1=
EXTT2=
EXTT3=
EXTT4=
EXTT5=
EXTT6=
EXTT7=
EXTT8=
EXTT9=
EXTT10=
EXTT11=
PLAYORDER=
